<svg version="1.1" id="Layer_1" xmlns="http://www.w3.org/2000/svg" xmlns:xlink="http://www.w3.org/1999/xlink" x="0px" y="0px"
	 width="100%" viewBox="0 0 824 430" enable-background="new 0 0 824 430" xml:space="preserve">
<path fill="#3C3C3C" opacity="1.000000" stroke="none" 
	d="
M415.980896,67.914886 
	C425.508270,68.335121 434.820923,69.736565 443.281891,74.481453 
	C445.059174,75.478142 446.489258,77.093925 448.462311,78.744926 
	C456.429108,77.378105 463.175110,80.952271 469.033875,87.481529 
	C473.646301,85.760040 481.774078,90.245468 484.536957,96.399223 
	C489.685303,92.419373 491.189789,94.145439 493.533508,106.720810 
	C493.643585,106.595703 493.831177,106.482574 493.852600,106.343781 
	C495.164581,97.850563 495.036530,98.272224 503.600647,100.845589 
	C514.741516,104.193230 525.700134,107.753998 537.653748,108.763298 
	C544.948181,109.379219 548.722107,103.343788 555.062500,103.735909 
	C555.564148,103.766922 556.829773,99.393951 556.765015,97.095161 
	C556.735107,96.035393 554.478760,94.765381 553.004944,94.076576 
	C550.002869,92.673546 546.846802,91.600166 543.754150,90.390961 
	C543.851013,89.909698 543.947815,89.428436 544.044678,88.947166 
	C542.342285,90.420410 540.639893,91.893646 538.829285,93.460510 
	C534.542847,88.891319 535.603455,84.307076 537.646973,79.752754 
	C539.542053,75.529297 542.527649,72.694054 547.811951,72.845963 
	C547.977478,74.391113 548.129822,75.813522 548.282166,77.235931 
	C548.688904,77.396721 549.095642,77.557518 549.502380,77.718307 
	C550.205383,76.155464 550.908386,74.592621 551.907410,72.371704 
	C559.453186,73.244789 568.106384,71.895737 573.730164,80.099609 
	C574.094482,80.631096 575.150330,80.643219 575.652100,81.134377 
	C577.116028,82.567398 579.763977,84.230537 579.647766,85.609718 
	C578.745972,96.315880 577.342896,106.981552 575.996216,117.647285 
	C575.670288,120.228539 575.403503,122.951813 574.373535,125.284866 
	C571.049622,132.814194 567.827637,140.521423 558.140930,142.151642 
	C556.450867,142.436081 555.024902,144.289261 553.156982,145.651230 
	C552.426636,145.052811 551.371094,144.187943 550.358398,143.358139 
	C544.344727,148.967133 530.031921,151.086411 524.830017,147.085526 
	C523.765320,147.770706 522.600891,148.520081 520.929871,149.595428 
	C519.683777,147.343323 518.592712,145.371384 517.309937,143.053009 
	C516.385071,147.276901 514.161926,147.911346 510.554443,146.200928 
	C507.650391,144.824020 504.689789,143.945358 501.174561,143.725494 
	C495.915222,143.396545 490.788208,140.938217 485.609528,139.370346 
	C485.298828,139.276291 485.042358,139.016052 484.738129,138.885880 
	C479.571014,136.674866 472.836639,136.123856 473.515411,127.186661 
	C471.687683,132.976868 468.454498,133.865768 463.851868,132.115829 
	C463.037048,131.806030 461.763275,132.783859 460.678833,133.085831 
	C458.452362,133.705841 456.210510,134.270798 454.421722,134.740982 
	C453.489044,136.265671 452.712952,138.116501 451.441986,139.518906 
	C442.214783,149.700439 435.647705,161.057465 436.381805,175.298401 
	C436.614380,179.810272 437.187927,184.074127 440.358856,188.457016 
	C442.996521,192.102768 445.771027,195.601913 448.681763,199.045715 
	C449.363007,199.851715 449.182678,201.385925 449.370087,202.426025 
	C453.243378,204.683090 458.963318,202.573257 461.656708,207.824402 
	C461.870056,208.240356 463.465668,208.518936 463.843384,208.193481 
	C469.852570,203.015121 477.247192,206.693420 483.988281,204.648254 
	C484.626282,206.067398 485.179321,207.297501 485.439697,207.876648 
	C490.083771,205.035629 494.509827,202.327972 499.307373,199.393066 
	C500.067810,201.481491 500.690063,203.190536 501.390350,205.113785 
	C506.852997,195.198792 506.975220,185.611420 500.509460,175.448257 
	C496.977539,177.706955 492.850037,180.550415 488.517670,183.036972 
	C486.105957,184.421158 483.390381,185.986771 480.746490,186.113861 
	C474.403900,186.418732 472.006500,181.977081 470.657013,176.480362 
	C468.333801,167.017532 470.968994,158.574966 479.477814,154.294769 
	C484.159271,151.939865 490.275696,149.533447 495.317993,156.526474 
	C496.230774,151.687866 498.741730,148.738159 502.744965,150.486328 
	C505.662018,151.760162 507.727966,154.982941 509.395355,156.587952 
	C512.239319,157.047256 514.992188,156.682434 516.476929,157.884216 
	C520.835693,161.412109 524.881714,165.390579 528.636536,169.564713 
	C529.914124,170.984924 530.386414,173.491486 530.485596,175.537598 
	C530.722168,180.420013 529.397766,185.688675 530.837219,190.106140 
	C532.036377,193.786163 534.233887,197.144424 533.106567,201.064911 
	C531.991272,204.943359 530.183228,208.622620 528.957275,212.338791 
	C528.307312,215.068695 527.960266,217.933014 526.841370,220.454895 
	C526.454529,221.326843 524.149231,221.347672 522.520996,221.814316 
	C518.346741,233.643448 508.302795,240.098648 497.479523,245.575790 
	C496.075531,246.286270 493.687408,245.052063 491.601501,244.692123 
	C486.335052,250.503952 479.124695,253.475998 471.010773,253.093353 
	C464.359467,252.779709 458.046509,254.495331 451.559204,254.772354 
	C446.949097,254.969223 442.196930,254.845428 437.700714,253.924591 
	C432.356201,252.830002 427.059296,251.095139 422.048615,248.928192 
	C418.951385,247.588745 416.422791,244.931564 413.648193,242.853561 
	C413.386353,242.657455 413.222412,242.201935 412.960266,242.153717 
	C407.185333,241.091721 403.085449,237.997345 399.198700,233.444031 
	C396.661346,230.471497 393.009583,228.653595 392.782440,224.111633 
	C392.738831,223.238937 392.178467,222.384445 391.820587,221.536713 
	C391.149323,219.946548 390.451721,218.367477 389.319885,215.756882 
	C386.494446,214.681503 386.494446,214.681503 389.832367,205.586273 
	C388.536407,205.719269 387.443390,205.831436 385.823853,205.997620 
	C386.522827,203.008057 387.155609,200.301498 387.791016,197.583710 
	C380.255157,192.991394 391.263550,187.146698 385.789734,181.882767 
	C384.172272,181.808365 381.322113,181.988693 378.615356,181.449371 
	C376.625702,181.052933 374.894135,179.475891 372.910156,178.890884 
	C371.828522,178.571930 369.942902,179.854034 369.307709,179.332581 
	C365.707031,176.376648 359.670105,179.050888 357.057098,173.839844 
	C356.539673,172.808014 355.022583,172.056152 353.807098,171.631577 
	C345.989441,168.900848 344.011841,162.588074 343.014954,155.257828 
	C342.406860,150.786484 344.378357,145.549973 338.802582,142.081085 
	C337.447723,141.238190 337.693481,135.609390 339.064056,133.272644 
	C340.240356,131.267136 340.598938,130.185486 340.079102,128.019028 
	C339.002167,123.530884 341.414215,118.372528 344.820831,116.823547 
	C343.217194,112.589684 346.701111,102.697197 350.303558,99.606552 
	C353.550537,96.820885 356.404083,93.536301 359.183533,90.261559 
	C360.789337,88.369576 361.679932,85.480316 364.926971,88.989006 
	C366.605988,78.915520 374.557159,76.901550 381.328949,73.075432 
	C382.021759,75.064499 382.485107,76.394714 383.417938,79.072838 
	C386.933136,71.677116 390.474670,65.186852 398.790375,72.076797 
	C405.170258,66.342003 407.009583,66.254662 411.793335,72.083595 
	C410.996399,73.833122 409.977020,74.968971 408.714355,76.375900 
	C410.286346,77.453400 411.534027,78.308586 413.960205,79.971573 
	C413.960205,76.491882 413.960205,74.240669 413.960205,71.989456 
	C414.027771,71.285522 414.095367,70.581596 414.366943,69.367813 
	C415.040924,68.543602 415.510895,68.229248 415.980896,67.914886 
M428.659210,122.789383 
	C430.262817,120.524818 432.782013,118.349098 429.088928,114.979919 
	C428.148804,117.500633 427.376221,119.572090 425.844299,121.566437 
	C418.755280,119.614288 411.666260,117.662140 403.569397,115.432457 
	C397.981812,117.408577 391.164520,119.819611 384.186096,122.287613 
	C383.631226,121.579613 382.712463,120.407356 381.793732,119.235107 
	C381.463074,119.357849 381.132385,119.480591 380.801727,119.603333 
	C380.801727,122.462067 380.801727,125.320808 380.801727,128.848114 
	C379.124939,127.839439 378.150879,127.253494 376.153961,126.052246 
	C376.334412,129.603806 377.223328,132.507507 376.425385,134.832169 
	C375.244690,138.271927 373.771515,140.988907 376.085785,144.791824 
	C378.390503,148.579010 379.470276,153.111603 380.879028,156.776001 
	C388.972534,156.459595 393.501617,148.624039 401.235352,150.611893 
	C402.203339,148.082016 403.172180,145.549973 404.413422,142.305969 
	C405.691162,144.248016 406.458008,145.413574 407.224884,146.579117 
	C406.929688,141.548126 409.596191,137.662231 412.387695,134.874512 
	C416.982422,130.285995 422.695068,126.816895 428.659210,122.789383 
M573.094360,100.381012 
	C572.960144,102.825333 572.825867,105.269661 572.680664,107.914673 
	C577.190308,104.170189 578.277344,90.907372 574.202576,87.086792 
	C573.830078,91.425415 573.484680,95.449181 573.094360,100.381012 
M482.894806,106.913826 
	C482.894806,104.568810 482.894806,102.223793 482.894806,99.841576 
	C479.681000,100.954193 478.383240,111.805801 481.926605,117.671928 
	C482.295990,114.363243 482.665375,111.054558 482.894806,106.913826 
M429.942047,167.362656 
	C430.336151,173.884735 430.730286,180.406815 431.124390,186.928894 
	C431.889435,186.882706 432.654449,186.836502 433.419464,186.790314 
	C432.991089,180.047699 432.567291,173.304749 432.050201,166.568954 
	C432.046173,166.517014 430.770111,166.562714 429.942047,167.362656 
M410.002808,96.810646 
	C409.659485,93.673759 409.316162,90.536865 408.972809,87.399979 
	C408.591583,87.428146 408.210358,87.456314 407.829132,87.484482 
	C407.829132,93.447044 407.829132,99.409607 407.829132,105.372162 
	C408.296143,105.420265 408.763123,105.468361 409.230133,105.516457 
	C409.553894,102.883598 409.877686,100.250740 410.002808,96.810646 
M420.130280,186.299225 
	C420.130280,189.708847 420.130280,193.118469 420.130280,196.528091 
	C420.873749,196.540176 421.617218,196.552261 422.360718,196.564346 
	C422.539307,192.926788 422.723114,189.289352 422.792542,185.649704 
	C422.793030,185.624054 421.221222,185.568420 420.130280,186.299225 
M378.370239,173.447403 
	C379.227020,169.462540 380.083832,165.477661 380.940613,161.492798 
	C376.502319,164.610260 378.223145,168.841660 378.370239,173.447403 
z"/>
<path fill="#288443" opacity="1.000000" stroke="none" 
	d="
M742.570679,44.523930 
	C768.993896,31.206175 795.101929,18.084757 821.812622,4.660486 
	C822.177734,6.583697 822.549744,7.484042 822.484497,8.351501 
	C819.346497,50.077984 814.450317,91.639374 803.391785,132.030243 
	C793.565369,167.920746 770.538513,194.280350 736.418213,208.801437 
	C710.964722,219.634064 684.172668,227.383224 657.807739,235.987549 
	C643.852356,240.541946 629.587219,244.205276 618.533020,254.604019 
	C614.070374,258.802032 609.903931,263.375916 606.041565,268.134888 
	C601.647400,273.549042 599.493286,274.366760 593.036438,271.363983 
	C591.272583,270.543671 589.675842,269.364136 587.501587,268.045837 
	C592.293030,262.203094 596.373108,256.303680 601.368896,251.322723 
	C612.779297,239.946152 616.537659,226.093979 618.165649,210.437378 
	C623.353271,160.546936 642.032288,116.891945 680.579651,83.204414 
	C697.133179,68.737846 716.261841,58.256882 735.566956,48.075573 
	C737.772827,46.912251 740.024902,45.836582 742.570679,44.523930 
M782.309204,127.774338 
	C769.125793,132.524872 755.942383,137.275406 742.758972,142.025940 
	C749.079590,142.652557 755.200378,143.066299 761.243713,142.558456 
	C771.026611,141.736359 778.236511,136.578873 783.398621,127.900002 
	C783.346741,127.718369 783.294922,127.536736 783.243042,127.355118 
	C783.185181,127.589424 783.127258,127.823738 782.309204,127.774338 
M763.256592,161.829102 
	C734.372070,160.762466 701.655396,173.305344 689.291931,183.895111 
	C703.896484,183.895111 718.522522,184.356186 733.095215,183.674667 
	C739.168152,183.390656 745.866394,181.881790 750.957581,178.767487 
	C757.872314,174.537781 763.518127,168.233566 769.800354,162.738419 
	C769.146118,162.303558 768.908142,162.013306 768.653259,161.997650 
	C767.161682,161.906036 765.666077,161.878647 763.256592,161.829102 
M726.748047,108.206459 
	C731.282043,94.886917 734.827942,81.380257 734.221008,66.653801 
	C729.195190,70.749695 723.789124,74.737770 720.818542,80.080093 
	C716.745544,87.404915 714.272583,95.673431 711.561279,103.688843 
	C707.489441,115.726135 705.564087,128.036301 708.399109,141.735291 
	C716.354065,131.154205 722.094788,120.434212 726.748047,108.206459 
M639.891113,174.409363 
	C634.033936,187.832123 631.501526,203.270584 634.035706,210.106277 
	C647.551331,194.395813 653.432129,171.757751 653.098328,149.651886 
	C648.437195,158.289551 644.281555,165.990509 639.891113,174.409363 
M693.855469,93.410751 
	C692.655579,94.717384 691.273438,95.899742 690.284424,97.350136 
	C681.704468,109.932457 678.853699,124.363136 676.963196,139.093277 
	C676.333984,143.995483 675.685059,148.895157 674.913208,154.806458 
	C683.986633,144.978577 696.335693,114.008682 693.855469,93.410751 
M780.917053,93.435921 
	C775.593506,97.745377 770.269897,102.054840 764.946350,106.364296 
	C770.051208,106.567772 774.637451,105.959404 779.152771,105.012672 
	C791.910217,102.337860 795.949036,96.487495 794.376160,82.669281 
	C789.939758,86.223495 785.709839,89.612312 780.917053,93.435921 
M678.945007,205.162018 
	C669.788940,206.735489 664.938110,210.431015 662.503052,217.877716 
	C672.907349,214.071259 683.154785,210.322189 693.402283,206.573105 
	C693.325439,206.092850 693.248657,205.612595 693.171814,205.132339 
	C688.732605,205.132339 684.293457,205.132339 678.945007,205.162018 
M769.451904,59.972851 
	C771.576782,56.491093 773.701599,53.009335 775.971313,49.290157 
	C774.033508,48.221954 772.472534,47.361462 770.532104,46.291813 
	C766.651917,52.350334 762.933594,58.156170 759.045715,64.226807 
	C760.967651,65.655930 762.610229,66.877350 764.399170,68.207596 
	C766.137817,65.377861 767.606750,62.987106 769.451904,59.972851 
M803.651978,55.127083 
	C804.206482,53.570827 804.982727,52.050358 805.241516,50.446396 
	C805.430542,49.274754 804.938416,47.993210 804.749939,46.760651 
	C803.467590,47.099674 801.512390,47.030548 801.017090,47.847023 
	C798.623108,51.793400 796.621765,55.977947 794.197632,60.621277 
	C797.207703,61.553154 798.854431,62.062962 800.667908,62.624393 
	C801.644104,60.102901 802.474365,57.958260 803.651978,55.127083 
z"/>
<path fill="#3B3B3B" opacity="1.000000" stroke="none" 
	d="
M162.526917,203.323151 
	C162.605301,217.565811 150.316788,223.030823 139.423111,222.764420 
	C134.202942,222.636765 129.409302,223.405304 124.387192,224.667267 
	C112.169090,227.737503 99.886681,231.052673 87.424217,232.520538 
	C72.479515,234.280792 57.300674,234.398712 42.970112,228.116348 
	C28.965078,221.976700 17.755562,212.729004 13.339229,197.666794 
	C10.928804,189.445862 9.072750,180.503387 9.665121,172.075989 
	C10.945150,153.865631 16.315758,136.522079 25.690559,120.632515 
	C34.631290,105.478645 47.195156,93.882408 63.142212,87.011002 
	C70.360435,83.900742 77.644592,79.149338 86.469467,80.147186 
	C88.865891,80.418152 91.443192,78.242851 94.032967,77.888809 
	C96.618263,77.535378 99.322624,78.072273 101.976135,78.188187 
	C102.913208,78.229126 103.865417,78.267517 104.790756,78.149963 
	C106.074265,77.986893 107.388855,77.316872 108.603615,77.485870 
	C116.705742,78.613037 124.840950,76.707481 132.919846,77.827354 
	C136.808792,78.366425 140.644714,79.330429 144.542664,79.741554 
	C146.145004,79.910568 147.851730,78.821640 149.503616,78.844185 
	C153.159683,78.894096 156.819031,79.203140 160.462708,79.554962 
	C167.825638,80.265923 169.593277,81.779388 169.623413,89.010681 
	C169.668640,99.858459 168.555130,110.612289 164.362259,120.787994 
	C161.213913,128.428772 157.037476,130.697632 149.239105,129.156235 
	C143.269501,127.976295 145.358994,122.797699 144.560547,120.177002 
	C136.723373,114.110161 129.517944,108.532372 121.798065,102.556335 
	C121.798065,100.905151 121.798065,98.323189 121.798065,95.741226 
	C121.329651,95.632179 120.861237,95.523132 120.392822,95.414085 
	C119.641441,98.171455 118.890053,100.928825 118.269867,103.204742 
	C110.666817,105.278313 103.185661,107.318642 94.276596,109.748398 
	C92.745247,113.100479 90.471344,118.253334 88.048889,123.335388 
	C85.161255,129.393341 83.732033,130.030701 77.650734,128.159805 
	C77.568130,128.987823 77.129463,130.161377 77.470230,130.467606 
	C80.906952,133.556107 79.028000,136.870026 77.928650,140.052902 
	C76.155281,145.187210 74.025909,150.201294 72.336227,155.360901 
	C70.988388,159.476700 67.490433,163.116989 73.338692,167.756271 
	C77.478004,171.039871 76.232277,177.441193 74.340546,182.796860 
	C71.782951,190.037643 73.101631,192.775513 80.601730,194.897568 
	C87.134949,196.746078 93.899048,197.826752 100.605057,198.994507 
	C103.630737,199.521408 110.988174,193.383591 112.372665,189.590103 
	C112.600136,188.966843 112.787140,188.322433 112.923370,187.673218 
	C116.399742,171.105652 116.532791,169.792664 101.034264,165.460052 
	C100.393623,165.280975 99.757080,165.078110 99.135101,164.842758 
	C87.805016,160.555771 86.778458,155.706757 95.424248,146.634857 
	C96.197380,147.362198 96.972099,148.091049 98.136063,149.186096 
	C98.684166,147.456253 99.106476,146.123428 99.499748,144.882263 
	C115.918907,141.842865 132.400757,140.197678 149.272125,141.635803 
	C149.798538,144.085541 150.255783,146.213394 150.713028,148.341263 
	C151.079025,148.345490 151.445007,148.349716 151.811005,148.353958 
	C152.388962,146.060333 152.966919,143.766708 153.535934,141.508530 
	C156.937164,140.190826 158.759872,141.058762 158.323975,143.616806 
	C162.840363,143.048904 167.156998,141.962952 171.363266,142.291275 
	C172.714951,142.396774 174.976151,146.376770 174.742172,148.335892 
	C174.062271,154.028854 172.934311,159.830658 170.869095,165.158325 
	C167.655212,173.449173 165.660019,181.873596 164.780563,190.686493 
	C164.498367,193.514328 163.034958,196.224304 161.752426,200.064896 
	C161.751099,200.059631 162.111984,201.495361 162.526917,203.323151 
M139.230499,153.967651 
	C139.734772,154.981857 140.239044,155.996063 140.743317,157.010269 
	C141.209793,156.889420 141.676270,156.768555 142.142746,156.647705 
	C141.973907,153.328323 141.805084,150.008957 141.636246,146.689575 
	C140.951691,146.681122 140.267151,146.672684 139.582596,146.664230 
	C139.431091,148.816849 139.279602,150.969452 139.230499,153.967651 
z"/>
<path fill="#3C3C3C" opacity="1.000000" stroke="none" 
	d="
M204.209839,118.108627 
	C204.842758,108.669174 201.431351,105.616661 194.483047,103.138542 
	C191.368118,102.027596 187.983307,100.955139 185.551666,98.888023 
	C183.803513,97.401939 182.091187,93.821228 182.732178,92.016289 
	C183.961914,88.553474 186.313156,84.887627 189.260788,82.818321 
	C191.815384,81.024948 195.837982,81.322685 198.998718,80.735733 
	C200.004837,82.691132 200.685364,84.013718 201.679413,85.945656 
	C203.285980,80.621033 207.247528,81.375847 210.448837,81.239029 
	C216.861755,80.964981 223.302841,80.971588 229.713760,81.265923 
	C231.576553,81.351456 233.376434,82.806992 235.878998,83.939445 
	C235.971344,83.783844 236.731018,82.503845 237.532227,81.153885 
	C244.641403,81.153885 251.809662,80.895157 258.936066,81.327171 
	C260.829987,81.441986 262.595367,83.677193 264.629456,85.083870 
	C265.116974,84.095261 265.582733,83.150696 266.195068,81.908936 
	C267.267487,83.482948 268.123108,84.738823 269.522308,86.792496 
	C269.910583,84.466164 270.139099,83.097206 270.454865,81.205437 
	C272.433899,80.997253 274.521790,80.648628 276.618347,80.584457 
	C280.723389,80.458817 284.833710,80.520470 288.941040,80.453773 
	C301.060242,80.256981 313.178436,79.986893 325.298218,79.843719 
	C331.469299,79.770821 335.371216,83.459541 334.894470,89.632988 
	C334.476257,95.048706 333.899200,100.719116 331.888702,105.665924 
	C330.067078,110.148010 327.974640,114.434654 326.690491,119.184608 
	C326.037048,121.601570 323.753662,124.110947 321.528961,125.461571 
	C316.543732,128.488098 314.455658,126.694511 310.706146,122.389824 
	C305.177887,116.043022 307.820770,108.167595 305.188843,101.431900 
	C305.077362,101.146553 305.583252,100.619995 305.959381,99.906265 
	C304.284180,99.462830 302.807556,99.071960 301.121399,98.625626 
	C301.121399,99.571815 301.111420,100.229500 301.122955,100.886803 
	C301.222382,106.550484 300.672546,106.940582 295.112091,105.181625 
	C293.533783,104.682365 291.965912,104.124931 290.356384,103.754570 
	C286.205444,102.799431 282.374359,101.783142 277.851715,103.838501 
	C272.379303,106.325493 269.727203,104.061607 268.216461,97.643272 
	C268.061890,99.736382 267.907288,101.829498 267.699158,104.647621 
	C255.880417,103.987328 254.939468,112.519722 254.354401,121.246834 
	C254.154343,124.230850 254.088867,127.241035 254.226852,130.227020 
	C254.517609,136.519165 258.359039,139.191910 263.950684,136.064011 
	C270.114166,132.616241 275.662537,128.042480 281.354584,123.792717 
	C283.338074,122.311821 284.867981,120.239120 286.750305,118.603943 
	C290.807709,115.079269 294.447845,115.838844 295.722107,121.009239 
	C297.611176,128.674026 299.148071,136.159134 295.872559,144.352905 
	C293.221130,150.985641 293.412628,158.709915 291.878296,165.850159 
	C290.877625,170.507095 289.606323,175.273132 287.451477,179.474960 
	C284.353973,185.514816 278.675873,186.313904 274.000183,181.306030 
	C270.416992,177.468277 267.662720,172.793488 264.903107,168.269348 
	C262.592896,164.481979 259.875885,162.030945 255.192108,163.151642 
	C249.759644,164.451462 246.731094,167.882919 246.351501,172.931061 
	C246.089233,176.418762 245.985321,179.933594 245.442581,183.378296 
	C245.187820,184.995224 246.251007,187.867004 242.796936,187.674606 
	C242.761108,189.225021 242.130539,191.108978 242.783417,192.273148 
	C248.063599,201.688049 253.936523,204.273148 264.669037,201.572052 
	C280.417542,197.608551 295.253510,191.429688 308.612122,182.053894 
	C311.911194,179.738464 314.632111,176.406799 318.173920,174.682938 
	C321.849213,172.894119 326.197998,172.489014 330.252258,171.478760 
	C330.567657,171.904785 330.883087,172.330811 331.198517,172.756836 
	C330.538391,174.469711 329.878235,176.182602 329.242584,177.831940 
	C334.411072,179.302826 335.090179,180.212479 333.342712,186.088181 
	C331.427124,192.529190 329.150055,198.865051 326.911774,205.204834 
	C326.624390,206.018906 325.414154,206.473251 324.997803,207.282700 
	C324.110657,209.007355 322.662598,210.954147 322.868774,212.635254 
	C323.499023,217.774704 320.832245,222.405090 315.873779,224.601822 
	C308.036163,228.074112 304.118683,226.992340 293.338654,225.221970 
	C293.237061,224.687317 293.133667,224.069229 293.000275,223.457687 
	C292.775970,222.429367 292.810852,220.786362 292.231445,220.525909 
	C291.385254,220.145523 289.924988,220.472565 289.019592,221.000626 
	C285.738464,222.914337 282.579559,225.037704 279.374573,227.081985 
	C279.128754,226.692291 278.882935,226.302597 278.637115,225.912918 
	C279.129150,224.377350 279.621216,222.841782 280.506531,220.078903 
	C278.387085,221.444580 277.305176,221.908356 276.530670,222.680496 
	C272.835480,226.364334 269.181976,228.776520 263.964386,224.839371 
	C262.898682,224.035202 260.281006,225.431549 258.360809,225.577026 
	C256.292358,225.733749 254.202835,225.612473 251.146164,225.612473 
	C251.253159,225.534225 250.367950,226.740936 249.461060,226.757477 
	C241.344391,226.905441 233.223877,226.843796 224.757965,226.843796 
	C224.757965,224.395844 224.757965,222.523743 224.757965,220.651642 
	C224.355484,220.567703 223.952988,220.483749 223.550507,220.399796 
	C222.994888,222.464706 222.439285,224.529602 221.803802,226.891388 
	C219.451019,226.891388 217.015732,226.891388 214.166000,226.891388 
	C214.052063,225.743057 213.928528,224.498001 213.803223,223.235123 
	C213.492966,223.305908 212.956085,223.308136 212.912399,223.456070 
	C211.955719,226.694733 209.788269,227.466980 206.570587,227.251419 
	C202.117035,226.953049 197.628540,227.176514 193.577530,227.176514 
	C193.362762,223.749939 193.175629,220.764084 192.988495,217.778214 
	C192.359619,217.622360 191.730728,217.466522 191.101852,217.310669 
	C190.048370,219.480988 188.839966,221.591415 187.972961,223.833847 
	C186.040955,228.830795 183.229355,229.786835 177.192047,227.288254 
	C173.006714,225.556122 172.022583,223.115265 174.900925,218.474106 
	C177.312775,214.585129 180.603256,211.176605 183.879608,207.934174 
	C184.685471,207.136642 186.952209,207.815277 187.882812,207.815277 
	C188.710785,204.118454 189.645691,199.944122 190.580612,195.769791 
	C191.423828,195.899323 192.267044,196.028870 193.110245,196.158401 
	C192.499451,201.331970 191.888641,206.505539 191.244965,211.957657 
	C191.254562,211.956619 191.749481,211.867035 192.245529,211.860352 
	C192.679306,211.854492 193.114319,211.941879 193.927399,212.028336 
	C194.438599,203.440689 194.488327,194.813049 195.559464,186.314148 
	C197.491943,170.980865 200.175125,155.743622 202.262405,140.427795 
	C203.248322,133.193466 203.581284,125.870171 204.209839,118.108627 
M255.465149,91.409843 
	C255.158020,89.801727 254.850891,88.193611 254.543777,86.585495 
	C254.114014,86.598793 253.684265,86.612091 253.254517,86.625389 
	C252.143616,90.823540 251.032730,95.021690 249.945435,99.130653 
	C252.025131,99.642563 253.721786,100.060188 256.029694,100.628273 
	C255.814514,97.593773 255.622955,94.892303 255.465149,91.409843 
M232.638107,95.527634 
	C232.207092,92.887466 231.776077,90.247307 231.345062,87.607140 
	C230.829407,87.665520 230.313766,87.723900 229.798126,87.782272 
	C229.798126,93.089111 229.798126,98.395950 229.798126,103.702782 
	C230.322983,103.766129 230.847839,103.829475 231.372696,103.892815 
	C231.797318,101.385010 232.221939,98.877197 232.638107,95.527634 
M307.049927,198.248306 
	C306.171875,202.500961 305.139618,206.772064 307.395538,210.649857 
	C308.163635,210.549072 308.931702,210.448288 309.699799,210.347504 
	C308.975525,206.124359 308.251221,201.901215 307.049927,198.248306 
M306.102783,222.973465 
	C306.770752,223.085052 307.438751,223.196625 308.106720,223.308212 
	C308.620117,219.973618 309.133514,216.639023 309.646942,213.304443 
	C308.771027,213.193985 307.895081,213.083542 307.019165,212.973083 
	C306.668121,216.020966 306.317078,219.068832 306.102783,222.973465 
M316.875549,210.700897 
	C316.811920,209.405869 316.748322,208.110855 316.684692,206.815826 
	C316.134552,206.820755 315.584442,206.825684 315.034302,206.830612 
	C314.742798,210.400803 314.451294,213.971008 314.159790,217.541199 
	C314.773834,217.603226 315.387878,217.665268 316.001892,217.727295 
	C316.279266,215.657822 316.556641,213.588364 316.875549,210.700897 
M224.111282,218.599503 
	C224.530182,218.740067 224.949097,218.880615 225.367996,219.021179 
	C225.377533,218.454346 225.387085,217.887512 225.396637,217.320679 
	C224.989578,217.483002 224.582520,217.645325 224.111282,218.599503 
z"/>
<path fill="#2A8544" opacity="1.000000" stroke="none" 
	d="
M74.094666,423.143005 
	C65.583542,423.451202 57.479645,424.189667 49.575806,421.679779 
	C45.873875,422.432159 41.634884,423.763550 37.325199,424.057159 
	C31.192877,424.474945 25.003973,423.978363 18.848234,424.166504 
	C14.929684,424.286346 13.034506,422.272369 12.056053,418.906982 
	C9.658208,410.659485 12.680847,405.516357 20.964262,402.701874 
	C22.952034,402.026459 25.239046,400.213379 26.006359,398.353363 
	C28.075069,393.338715 29.591639,388.067047 30.968458,382.803528 
	C32.678482,376.266174 33.329823,369.368988 35.709888,363.110779 
	C38.704910,355.235565 39.741425,350.161774 38.678997,341.527069 
	C37.756371,334.028564 37.132969,326.438141 37.197414,318.895325 
	C37.232670,314.768799 38.967640,310.656830 39.612732,307.913544 
	C36.180691,303.840027 33.785866,299.579346 30.168877,297.105804 
	C26.593903,294.661041 21.784172,294.021820 17.377462,292.544067 
	C21.214615,286.776703 21.012501,282.434235 16.320009,279.730377 
	C19.669552,277.201477 22.717497,274.900299 25.737646,272.620087 
	C27.065178,274.193176 27.875776,275.153717 29.075338,276.575195 
	C29.702868,275.102020 30.150127,274.052063 30.859587,272.386566 
	C31.908201,274.063538 32.702976,275.334564 33.769577,277.040283 
	C34.199818,275.147797 34.516819,273.753418 34.993149,271.658203 
	C41.899250,273.810303 49.258259,267.397278 56.408245,273.557983 
	C63.689148,272.378540 71.137680,267.824554 79.475098,270.894592 
	C93.601768,266.674347 108.039505,270.593933 122.274246,269.251648 
	C125.524200,268.945160 128.959656,267.597595 131.962021,268.273621 
	C139.148224,269.891541 146.221497,266.701447 153.356659,268.539520 
	C157.250015,269.542480 161.349976,269.743469 165.779251,270.365479 
	C165.973053,270.137787 167.087128,267.767761 168.159210,267.786652 
	C170.513290,267.828003 173.160065,268.609924 175.125153,269.927795 
	C179.873718,273.112305 178.344666,278.179993 177.824295,282.575470 
	C176.842636,290.867554 175.400345,299.106995 174.066696,307.354919 
	C172.850082,314.878906 167.579391,318.336517 160.417114,315.982788 
	C154.700302,314.104034 150.050903,311.124664 149.118668,304.178864 
	C148.455933,299.241089 140.129684,293.009460 134.420670,292.095276 
	C132.839752,291.842102 131.342224,291.068268 130.419586,290.746887 
	C126.875488,291.359955 123.746674,292.088898 120.576591,292.408295 
	C114.916878,292.978485 109.231049,293.286255 103.558334,293.731659 
	C96.443932,294.290253 92.269440,298.412628 90.827271,305.095215 
	C89.784966,309.924988 89.121658,314.903503 88.956085,319.838074 
	C88.763458,325.578705 91.877998,328.710205 97.656357,328.193512 
	C102.552155,327.755768 107.457268,326.427185 112.105919,324.780426 
	C113.655296,324.231628 114.617889,321.571442 115.514839,319.715118 
	C119.229065,312.028320 125.111992,308.452301 134.103745,309.447449 
	C134.690674,316.757568 135.778839,324.304535 135.798462,331.854279 
	C135.834869,345.874298 134.145264,359.736725 129.047745,372.932678 
	C127.469795,377.017456 125.908501,382.956696 120.786720,382.122803 
	C117.556908,381.596985 114.390099,376.853943 112.444130,373.315643 
	C110.365623,369.536316 109.756096,364.949097 108.454811,360.543549 
	C104.304146,359.726135 99.614815,358.610107 94.864082,357.911652 
	C87.536667,356.834381 83.158737,362.361908 84.055557,369.736084 
	C85.460007,381.284302 85.996422,392.938080 87.934280,404.797119 
	C88.739586,402.563629 89.544884,400.330109 90.588478,397.435699 
	C92.380508,397.907654 94.518150,398.674255 96.720314,398.988007 
	C98.576637,399.252441 100.520050,398.848602 102.401917,399.009521 
	C103.792366,399.128448 105.728561,399.232391 106.410423,400.119904 
	C108.803696,403.235046 110.761391,406.685120 112.874855,410.014099 
	C112.957718,410.144623 112.944923,410.337006 112.972740,410.501221 
	C113.679893,414.675751 111.000336,417.869934 103.276787,420.569122 
	C101.369270,421.235748 98.688881,419.690857 95.775711,419.028992 
	C95.613495,419.177368 94.501343,420.631897 93.032364,421.290527 
	C92.546143,421.508545 91.140778,419.676422 91.191345,419.722351 
	C85.352425,420.919006 79.952988,422.025574 74.094666,423.143005 
M72.132256,363.649109 
	C72.132256,367.790131 72.132256,371.931122 72.132256,376.072144 
	C75.643829,369.910004 75.814659,360.225891 72.549240,356.423523 
	C72.381546,358.974976 72.258720,360.843628 72.132256,363.649109 
z"/>
<path fill="#288443" opacity="1.000000" stroke="none" 
	d="
M521.592407,414.859680 
	C519.808777,414.044708 518.456665,413.263367 516.839844,412.329041 
	C514.885010,415.940948 511.297211,415.836121 507.214752,413.700623 
	C506.586365,413.371918 505.350861,413.246277 504.932190,413.622833 
	C500.876526,417.270264 499.680176,413.180573 499.387726,410.972717 
	C498.793823,406.488800 498.938080,401.842255 499.318024,397.307983 
	C500.072296,388.305786 501.030457,379.311493 502.284241,370.367218 
	C502.569000,368.335876 504.961853,366.641663 505.403656,364.581909 
	C506.262970,360.575653 507.759949,355.967102 506.558502,352.436340 
	C504.882507,347.510956 507.750153,343.863861 507.894012,339.605408 
	C507.918976,338.865845 508.972748,337.957855 508.765900,337.443878 
	C505.131317,328.414215 510.313141,320.596802 512.184937,312.362091 
	C513.533813,306.427734 515.338623,300.597046 516.940063,294.720123 
	C516.517517,294.546631 516.094971,294.373108 515.672424,294.199615 
	C514.960327,295.049316 514.248291,295.899048 513.313782,297.014191 
	C510.864868,292.336304 506.589569,292.942047 502.417236,292.973938 
	C496.986053,293.015503 493.727325,287.806458 496.224152,283.056122 
	C497.598938,280.440552 498.987671,277.698700 500.962189,275.560577 
	C504.754700,271.453857 506.763519,271.909698 510.462067,276.950134 
	C510.635590,275.131287 510.809082,273.312469 511.088837,270.379974 
	C519.873352,265.755005 530.507996,262.334625 541.815979,261.080750 
	C546.112122,260.604370 550.441284,260.283752 554.761414,260.200195 
	C560.709900,260.085144 562.604187,261.658051 562.173950,267.430237 
	C561.186768,280.676239 559.567139,293.874969 558.569885,307.120422 
	C558.257812,311.265106 559.114502,315.497833 559.436157,319.690247 
	C563.123108,318.533203 566.850952,317.488953 570.479919,316.172241 
	C572.335876,315.498871 574.222595,314.592285 575.740173,313.355347 
	C585.927246,305.052155 598.145630,304.395782 610.414917,304.023438 
	C621.582703,303.684448 626.210876,308.244690 628.228088,319.172363 
	C630.283875,330.308533 627.835632,341.025024 626.838562,351.914429 
	C626.186401,359.037445 626.021362,366.205841 625.333984,373.324554 
	C624.985840,376.929077 626.485413,378.198273 629.749268,379.044495 
	C633.036804,379.896851 637.905457,379.202545 638.077026,384.575195 
	C638.150085,386.862244 637.975647,389.853638 636.621887,391.376862 
	C627.827942,401.271423 617.652100,409.133148 604.175232,411.756317 
	C601.134033,412.348236 598.327026,414.166565 595.284668,414.721436 
	C593.446594,415.056641 591.362976,414.046204 588.829285,413.525177 
	C586.279236,417.188660 577.170410,419.034576 572.778687,415.137726 
	C570.971680,413.534271 570.185913,409.742523 570.440369,407.090485 
	C570.846558,402.857666 572.624573,398.772400 573.609375,394.574738 
	C574.616028,390.284088 575.656921,385.966827 576.161072,381.600952 
	C576.959412,374.688416 577.201599,367.712433 577.956787,360.793610 
	C578.142517,359.091858 579.107483,357.265533 580.221191,355.914337 
	C583.467468,351.975494 583.031860,347.563538 580.661987,344.017059 
	C579.612488,342.446472 575.635864,342.648285 572.955200,342.402740 
	C570.245056,342.154510 567.494568,342.347992 564.727966,341.783051 
	C562.936646,342.813019 562.752380,348.359314 558.238037,343.817688 
	C558.119019,343.697968 556.390625,345.177856 555.412720,345.911743 
	C558.536987,349.018036 554.867981,350.649353 553.700623,352.462036 
	C546.069946,364.310547 543.730347,377.686554 542.028442,391.275696 
	C541.448975,395.902710 541.015625,400.548157 540.428284,405.174103 
	C539.444153,412.923981 536.317017,415.580658 528.504150,415.337952 
	C526.341553,415.270813 524.183838,415.045898 521.592407,414.859680 
M512.016724,338.192657 
	C512.016724,342.490295 512.016724,346.787933 512.016724,352.250427 
	C515.648865,346.674591 515.447937,341.652100 512.016724,338.192657 
z"/>
<path fill="#2A8545" opacity="1.000000" stroke="none" 
	d="
M282.274750,388.400635 
	C279.260193,375.127930 277.568756,362.154327 280.215607,348.981110 
	C280.540497,347.364258 280.836884,345.602356 281.691895,344.253387 
	C288.470398,333.558929 294.963989,322.641815 302.448578,312.457062 
	C305.608887,308.156677 311.116028,305.648712 315.244354,301.975281 
	C320.692047,297.127930 326.894623,295.431519 333.997009,296.213196 
	C334.666962,296.286926 335.869965,295.759430 336.065277,295.230408 
	C337.564606,291.168915 341.273468,291.236084 344.406250,291.104950 
	C350.877289,290.834015 357.450104,290.540253 363.842651,291.349365 
	C378.072998,293.150513 386.806732,302.890625 387.264282,316.443146 
	C387.385681,320.038574 386.419281,322.986359 382.537292,324.836639 
	C381.993073,323.534332 381.485168,322.318939 380.746185,320.550629 
	C380.032806,321.457886 379.319550,321.946808 379.345825,322.392120 
	C380.312469,338.764313 366.557739,341.743713 356.426453,348.585510 
	C355.256866,346.821228 354.477997,345.646362 353.525574,344.209625 
	C352.037354,346.393463 350.861450,348.413330 349.385773,350.183258 
	C348.364868,351.407776 346.899200,353.203125 345.685791,353.162079 
	C340.498657,352.986511 336.920685,356.406342 332.894684,358.567719 
	C331.073822,359.545319 329.184937,362.535339 329.340210,364.449005 
	C329.493469,366.338135 331.900848,369.004944 333.833374,369.568695 
	C336.893127,370.461395 339.501343,373.956146 343.418610,371.839417 
	C343.826508,371.619049 345.338715,373.442322 346.141754,372.908417 
	C348.630280,372.437836 351.119446,371.970428 353.606995,371.494751 
	C354.361023,371.350586 355.176880,371.323822 355.852020,371.005157 
	C362.146729,368.034149 368.416931,365.011230 374.912323,361.898834 
	C378.618347,376.611633 377.561920,390.619202 366.547943,389.791351 
	C365.962769,387.962402 365.324188,385.966553 364.685638,383.970734 
	C364.400513,383.916779 364.115417,383.862823 363.830322,383.808868 
	C363.545410,386.267090 363.518616,388.795227 362.878418,391.157166 
	C362.496460,392.566498 361.402344,394.436462 360.196747,394.854492 
	C355.251740,396.568939 350.199219,398.090729 345.074615,399.136292 
	C340.097687,400.151733 334.984283,400.498047 330.452759,402.112030 
	C328.962250,403.086487 327.590027,404.516083 325.956604,404.940674 
	C322.545227,405.827423 319.014313,406.367920 315.499359,406.716431 
	C309.610077,407.300232 303.623505,407.366608 299.506836,402.183380 
	C298.000549,400.286835 297.595612,397.515533 296.688263,395.143280 
	C296.113586,394.823273 295.538879,394.503235 294.964172,394.183228 
	C294.183380,396.219269 293.402557,398.255310 292.433502,400.782196 
	C288.171875,395.658813 285.303131,392.209991 282.274750,388.400635 
M328.791748,350.150635 
	C327.951874,344.962280 329.553772,340.757141 333.587708,337.321289 
	C335.468170,335.719635 336.960724,333.668213 338.672607,331.861877 
	C343.301666,326.977356 346.231903,321.429993 344.921600,314.491028 
	C344.627197,312.931702 343.655243,311.104919 342.412445,310.216919 
	C340.735291,309.018585 338.494171,308.609589 335.944763,307.656097 
	C335.646301,308.233490 334.799194,309.439606 334.366974,310.779572 
	C331.848053,318.588806 330.047974,326.701050 326.781281,334.176117 
	C324.015869,340.504181 324.689850,346.143707 326.999847,352.808533 
	C330.647003,355.611145 331.840424,352.474579 333.573486,350.644287 
	C333.357666,350.155457 333.141846,349.666626 332.925995,349.177826 
	C331.560028,349.799622 330.194061,350.421448 328.791748,350.150635 
M309.166870,365.243713 
	C309.166870,371.616302 309.166870,377.988892 309.166870,384.757233 
	C313.273102,380.300751 313.550018,367.987091 309.856781,362.432800 
	C309.624329,363.223694 309.447052,363.826965 309.166870,365.243713 
M347.731018,390.492493 
	C347.731018,386.342804 347.731018,382.193085 347.731018,377.002411 
	C344.217712,381.336395 343.503235,389.178802 345.686981,391.915558 
	C345.807159,392.066193 346.862701,391.470428 347.731018,390.492493 
M296.925323,354.579010 
	C296.925323,352.080566 296.925323,349.582092 296.925323,347.083649 
	C296.457977,347.115540 295.990662,347.147400 295.523315,347.179291 
	C295.523315,353.662262 295.523315,360.145203 295.523315,366.628143 
	C295.990265,366.623932 296.457214,366.619720 296.924164,366.615509 
	C296.924164,362.923462 296.924164,359.231445 296.925323,354.579010 
M368.535889,327.899292 
	C367.680603,325.834930 369.999146,321.705322 364.155945,322.479218 
	C364.345459,324.455627 364.161957,326.610840 364.827179,328.460815 
	C365.679657,330.831696 367.284210,330.852966 368.535889,327.899292 
M294.027313,381.346252 
	C294.391205,382.753845 294.755096,384.161438 295.119019,385.569000 
	C295.544067,385.484436 295.969147,385.399872 296.394196,385.315277 
	C296.394196,381.695557 296.394196,378.075806 296.394196,374.456055 
	C296.063477,374.430908 295.732758,374.405792 295.402039,374.380646 
	C294.958435,376.434021 294.514832,378.487396 294.027313,381.346252 
z"/>
<path fill="#2A8545" opacity="1.000000" stroke="none" 
	d="
M419.476410,372.959229 
	C416.934052,370.955597 414.936157,368.996185 411.551697,369.351959 
	C410.361969,369.477051 408.540436,368.308746 407.800323,367.201172 
	C404.002045,361.516937 398.949463,356.058502 397.285950,349.743835 
	C395.819397,344.176758 398.012543,337.548462 399.026215,331.461487 
	C399.637817,327.789185 401.082886,324.255707 402.153442,320.659851 
	C402.700958,320.773712 403.248474,320.887543 403.796021,321.001404 
	C404.214630,321.965942 404.633209,322.930511 404.923828,323.600159 
	C413.597107,308.502228 426.705780,303.372192 443.657410,305.408081 
	C447.416718,299.537415 453.860077,302.093994 458.193115,303.571472 
	C462.445068,305.021301 470.222534,303.431549 470.430939,312.286652 
	C471.543030,310.919983 472.346313,309.932800 473.615631,308.372925 
	C476.773224,315.075317 479.597198,321.271393 478.882721,328.207245 
	C478.667419,330.297272 476.372131,332.214722 474.914307,334.123077 
	C473.506470,335.966064 471.949921,337.695404 469.890717,340.152374 
	C466.661438,338.936981 461.992035,338.041870 458.373352,335.593719 
	C454.097443,332.700867 450.729309,328.466248 447.104218,324.945892 
	C445.522675,325.414307 443.280304,325.994110 441.099457,326.751068 
	C439.370697,327.351135 437.717285,328.168304 436.030426,328.889069 
	C437.492615,331.191254 438.753815,335.315582 440.449280,335.502563 
	C452.248016,336.803772 458.005859,346.155151 465.522491,353.175385 
	C466.367523,353.964661 467.088623,354.886658 468.281067,356.204620 
	C468.787598,354.628845 469.177551,353.415771 469.624634,352.024963 
	C473.773438,353.409119 472.881775,356.519653 472.843353,359.452148 
	C472.737793,367.506409 472.806915,375.562988 472.806915,383.618652 
	C473.246918,383.635590 473.686951,383.652557 474.126953,383.669495 
	C474.749451,375.373474 475.371918,367.077423 476.000305,358.702911 
	C484.891449,366.418854 483.930298,387.748138 474.199829,395.622498 
	C473.964874,393.972656 473.752625,392.482178 473.540375,390.991699 
	C473.043427,390.890686 472.546478,390.789673 472.049530,390.688660 
	C471.196289,393.723877 470.343048,396.759125 469.392853,400.139313 
	C468.476013,399.542480 467.370697,398.822968 465.917999,397.877289 
	C462.798401,401.389069 464.888611,409.306061 456.777863,409.090302 
	C456.432465,407.430695 456.088348,405.777069 455.619446,403.523987 
	C448.614197,411.297974 442.021729,419.113342 429.935822,416.748169 
	C429.935822,413.973663 429.935822,411.140106 429.935822,407.921967 
	C425.711212,409.733795 429.689575,414.035828 426.451355,417.428009 
	C421.959808,416.990356 416.110229,416.606445 410.347778,415.680420 
	C409.357849,415.521332 408.738953,413.053589 407.826385,411.435547 
	C401.713837,413.256744 396.650543,410.801971 391.915710,405.716888 
	C386.137451,399.511230 383.851654,393.235474 387.865723,385.207397 
	C389.990356,380.958160 391.451263,376.377136 392.480957,373.785492 
	C398.036469,373.277252 402.004486,373.083984 405.919067,372.519806 
	C413.420013,371.438660 414.093140,371.857086 414.982147,379.374786 
	C415.285675,381.941437 415.515869,384.516754 415.723541,386.541656 
	C418.172272,389.674438 420.511963,392.667755 421.971527,394.535065 
	C425.255005,393.767334 428.053467,392.767334 430.916809,392.520874 
	C435.755798,392.104309 436.549011,391.317902 435.035461,386.703125 
	C434.106018,383.869354 432.877594,381.133636 431.670898,378.067993 
	C427.065369,378.702148 423.861694,377.223480 423.872894,372.176392 
	C422.406891,372.505371 421.126251,372.792725 419.476410,372.959229 
z"/>
<path fill="#298544" opacity="1.000000" stroke="none" 
	d="
M280.958069,321.939423 
	C279.392090,323.864990 277.503021,325.272949 276.832306,327.122711 
	C274.683105,333.049744 273.101562,339.180389 271.054108,345.147736 
	C270.256592,347.472046 269.121643,349.845306 267.544006,351.684784 
	C266.294739,353.141388 264.134949,353.817078 262.379486,354.839508 
	C261.854034,353.044891 260.952179,351.266083 260.876007,349.452606 
	C260.673492,344.630829 260.905884,339.792358 260.799103,334.964203 
	C260.757538,333.084167 260.270538,331.214020 259.208191,329.275635 
	C258.033234,337.504883 261.125916,346.521820 254.414124,353.361176 
	C249.893494,351.125946 245.241989,348.825989 241.110748,346.783264 
	C229.403412,358.282867 228.449265,373.539032 224.118027,387.424011 
	C222.498322,392.616394 221.241989,397.921234 219.766220,403.159668 
	C218.025833,409.337250 213.095978,411.784973 207.472763,412.606079 
	C203.762039,413.147888 199.868484,412.377777 196.054626,412.294647 
	C193.588226,412.240936 191.100769,412.560272 188.655487,412.343262 
	C187.072601,412.202728 185.298843,411.738342 184.045303,410.823486 
	C180.216141,408.028809 178.556290,399.613983 180.465591,395.032654 
	C181.006790,393.734039 180.902725,392.151886 181.020386,390.693787 
	C181.675003,382.581024 181.898941,374.403442 183.136688,366.381744 
	C183.670822,362.920105 186.303024,359.788208 187.943420,356.487244 
	C188.375565,355.617676 188.879669,354.700409 188.983505,353.764313 
	C189.807388,346.337280 188.841171,339.212494 185.253662,332.448151 
	C181.873596,332.637329 178.618530,332.865814 175.359482,332.991180 
	C170.287613,333.186249 168.944946,331.805420 170.081436,326.776398 
	C170.824860,323.486816 172.338333,320.371246 173.764511,316.473694 
	C175.448563,318.016418 176.310699,318.806213 177.177505,319.600281 
	C177.470352,319.262146 177.843399,319.025513 177.825378,318.823822 
	C177.377975,313.813202 180.426758,311.469299 184.623672,310.380371 
	C195.136017,307.652832 205.658737,304.937256 216.261734,302.600006 
	C220.876343,301.582825 225.706726,301.573914 230.423096,300.979950 
	C234.471954,300.470032 235.813293,302.647278 235.837173,306.175171 
	C235.878738,312.313568 235.848709,318.452484 235.848709,325.359314 
	C237.324493,324.447968 238.346344,324.047607 239.062546,323.338531 
	C245.314194,317.148956 253.323608,313.006866 258.264191,305.151031 
	C261.345856,300.251007 264.609253,300.678558 268.548126,304.679047 
	C272.704895,300.918671 275.469452,304.499908 278.203247,306.972137 
	C283.208466,311.498474 283.874542,315.463440 280.958069,321.939423 
z"/>
<path fill="none" opacity="1.000000" stroke="none" 
	d="
M413.646240,71.982071 
	C413.960205,74.240669 413.960205,76.491882 413.960205,79.971573 
	C411.534027,78.308586 410.286346,77.453400 408.714355,76.375900 
	C409.977020,74.968971 410.996399,73.833122 412.046143,72.338547 
	C412.495117,71.978111 412.913696,71.976402 413.646240,71.982071 
z"/>
<path fill="none" opacity="1.000000" stroke="none" 
	d="
M415.789429,67.695450 
	C415.510895,68.229248 415.040924,68.543602 414.332794,69.013695 
	C414.595764,68.604958 415.096863,68.040489 415.789429,67.695450 
z"/>
<path fill="none" opacity="1.000000" stroke="none" 
	d="
M427.936462,122.875900 
	C422.695068,126.816895 416.982422,130.285995 412.387695,134.874512 
	C409.596191,137.662231 406.929688,141.548126 407.224884,146.579117 
	C406.458008,145.413574 405.691162,144.248016 404.413422,142.305969 
	C403.172180,145.549973 402.203339,148.082016 401.235352,150.611893 
	C393.501617,148.624039 388.972534,156.459595 380.879028,156.776001 
	C379.470276,153.111603 378.390503,148.579010 376.085785,144.791824 
	C373.771515,140.988907 375.244690,138.271927 376.425385,134.832169 
	C377.223328,132.507507 376.334412,129.603806 376.153961,126.052246 
	C378.150879,127.253494 379.124939,127.839439 380.801727,128.848114 
	C380.801727,125.320808 380.801727,122.462067 380.801727,119.603333 
	C381.132385,119.480591 381.463074,119.357849 381.793732,119.235107 
	C382.712463,120.407356 383.631226,121.579613 384.186096,122.287613 
	C391.164520,119.819611 397.981812,117.408577 403.569397,115.432457 
	C411.666260,117.662140 418.755280,119.614288 426.476868,121.780266 
	C427.385071,122.288033 427.660767,122.581970 427.936462,122.875900 
z"/>
<path fill="none" opacity="1.000000" stroke="none" 
	d="
M573.116821,99.926971 
	C573.484680,95.449181 573.830078,91.425415 574.202576,87.086792 
	C578.277344,90.907372 577.190308,104.170189 572.680664,107.914673 
	C572.825867,105.269661 572.960144,102.825333 573.116821,99.926971 
z"/>
<path fill="none" opacity="1.000000" stroke="none" 
	d="
M482.964783,107.329849 
	C482.665375,111.054558 482.295990,114.363243 481.926605,117.671928 
	C478.383240,111.805801 479.681000,100.954193 482.894806,99.841576 
	C482.894806,102.223793 482.894806,104.568810 482.964783,107.329849 
z"/>
<path fill="none" opacity="1.000000" stroke="none" 
	d="
M430.015015,166.962738 
	C430.770111,166.562714 432.046173,166.517014 432.050201,166.568954 
	C432.567291,173.304749 432.991089,180.047699 433.419464,186.790314 
	C432.654449,186.836502 431.889435,186.882706 431.124390,186.928894 
	C430.730286,180.406815 430.336151,173.884735 430.015015,166.962738 
z"/>
<path fill="none" opacity="1.000000" stroke="none" 
	d="
M410.102142,97.214264 
	C409.877686,100.250740 409.553894,102.883598 409.230133,105.516457 
	C408.763123,105.468361 408.296143,105.420265 407.829132,105.372162 
	C407.829132,99.409607 407.829132,93.447044 407.829132,87.484482 
	C408.210358,87.456314 408.591583,87.428146 408.972809,87.399979 
	C409.316162,90.536865 409.659485,93.673759 410.102142,97.214264 
z"/>
<path fill="none" opacity="1.000000" stroke="none" 
	d="
M420.256927,185.912994 
	C421.221222,185.568420 422.793030,185.624054 422.792542,185.649704 
	C422.723114,189.289352 422.539307,192.926788 422.360718,196.564346 
	C421.617218,196.552261 420.873749,196.540176 420.130280,196.528091 
	C420.130280,193.118469 420.130280,189.708847 420.256927,185.912994 
z"/>
<path fill="none" opacity="1.000000" stroke="none" 
	d="
M378.189453,173.078552 
	C378.223145,168.841660 376.502319,164.610260 380.940613,161.492798 
	C380.083832,165.477661 379.227020,169.462540 378.189453,173.078552 
z"/>
<path fill="none" opacity="1.000000" stroke="none" 
	d="
M428.297852,122.832642 
	C427.660767,122.581970 427.385071,122.288033 426.856506,121.818817 
	C427.376221,119.572090 428.148804,117.500633 429.088928,114.979919 
	C432.782013,118.349098 430.262817,120.524818 428.297852,122.832642 
z"/>
<path fill="none" opacity="1.000000" stroke="none" 
	d="
M763.714233,161.829346 
	C765.666077,161.878647 767.161682,161.906036 768.653259,161.997650 
	C768.908142,162.013306 769.146118,162.303558 769.800354,162.738419 
	C763.518127,168.233566 757.872314,174.537781 750.957581,178.767487 
	C745.866394,181.881790 739.168152,183.390656 733.095215,183.674667 
	C718.522522,184.356186 703.896484,183.895111 689.291931,183.896637 
	C701.655396,173.305344 734.372070,160.762466 763.714233,161.829346 
z"/>
<path fill="none" opacity="1.000000" stroke="none" 
	d="
M726.575134,108.557243 
	C722.094788,120.434212 716.354065,131.154205 708.399109,141.735291 
	C705.564087,128.036301 707.489441,115.726135 711.561279,103.688843 
	C714.272583,95.673431 716.745544,87.404915 720.818542,80.080093 
	C723.789124,74.737770 729.195190,70.749695 734.221008,66.653801 
	C734.827942,81.380257 731.282043,94.886917 726.575134,108.557243 
z"/>
<path fill="none" opacity="1.000000" stroke="none" 
	d="
M640.008545,174.050415 
	C644.281555,165.990509 648.437195,158.289551 653.098328,149.651886 
	C653.432129,171.757751 647.551331,194.395813 634.035706,210.106277 
	C631.501526,203.270584 634.033936,187.832123 640.008545,174.050415 
z"/>
<path fill="none" opacity="1.000000" stroke="none" 
	d="
M694.040710,93.732269 
	C696.335693,114.008682 683.986633,144.978577 674.913208,154.806458 
	C675.685059,148.895157 676.333984,143.995483 676.963196,139.093277 
	C678.853699,124.363136 681.704468,109.932457 690.284424,97.350136 
	C691.273438,95.899742 692.655579,94.717384 694.040710,93.732269 
z"/>
<path fill="none" opacity="1.000000" stroke="none" 
	d="
M781.198486,93.218521 
	C785.709839,89.612312 789.939758,86.223495 794.376160,82.669281 
	C795.949036,96.487495 791.910217,102.337860 779.152771,105.012672 
	C774.637451,105.959404 770.051208,106.567772 764.946350,106.364296 
	C770.269897,102.054840 775.593506,97.745377 781.198486,93.218521 
z"/>
<path fill="none" opacity="1.000000" stroke="none" 
	d="
M782.962830,127.972260 
	C778.236511,136.578873 771.026611,141.736359 761.243713,142.558456 
	C755.200378,143.066299 749.079590,142.652557 742.758972,142.025940 
	C755.942383,137.275406 769.125793,132.524872 782.662537,127.894905 
	C783.015869,128.015472 782.962830,127.972260 782.962830,127.972260 
z"/>
<path fill="none" opacity="1.000000" stroke="none" 
	d="
M679.399658,205.147186 
	C684.293457,205.132339 688.732605,205.132339 693.171814,205.132339 
	C693.248657,205.612595 693.325439,206.092850 693.402283,206.573105 
	C683.154785,210.322189 672.907349,214.071259 662.503052,217.877716 
	C664.938110,210.431015 669.788940,206.735489 679.399658,205.147186 
z"/>
<path fill="none" opacity="1.000000" stroke="none" 
	d="
M769.263794,60.284603 
	C767.606750,62.987106 766.137817,65.377861 764.399170,68.207596 
	C762.610229,66.877350 760.967651,65.655930 759.045715,64.226807 
	C762.933594,58.156170 766.651917,52.350334 770.532104,46.291813 
	C772.472534,47.361462 774.033508,48.221954 775.971313,49.290157 
	C773.701599,53.009335 771.576782,56.491093 769.263794,60.284603 
z"/>
<path fill="none" opacity="1.000000" stroke="none" 
	d="
M803.478271,55.470348 
	C802.474365,57.958260 801.644104,60.102901 800.667908,62.624393 
	C798.854431,62.062962 797.207703,61.553154 794.197632,60.621277 
	C796.621765,55.977947 798.623108,51.793400 801.017090,47.847023 
	C801.512390,47.030548 803.467590,47.099674 804.749939,46.760654 
	C804.938416,47.993210 805.430542,49.274754 805.241516,50.446396 
	C804.982727,52.050358 804.206482,53.570827 803.478271,55.470348 
z"/>
<path fill="none" opacity="1.000000" stroke="none" 
	d="
M783.042603,128.036758 
	C783.127258,127.823738 783.185181,127.589424 783.243042,127.355118 
	C783.294922,127.536736 783.346741,127.718369 783.180725,127.936127 
	C782.962830,127.972260 783.015869,128.015472 783.042603,128.036758 
z"/>
<path fill="none" opacity="1.000000" stroke="none" 
	d="
M139.179306,153.544861 
	C139.279602,150.969452 139.431091,148.816849 139.582596,146.664230 
	C140.267151,146.672684 140.951691,146.681122 141.636246,146.689575 
	C141.805084,150.008957 141.973907,153.328323 142.142746,156.647705 
	C141.676270,156.768555 141.209793,156.889420 140.743317,157.010269 
	C140.239044,155.996063 139.734772,154.981857 139.179306,153.544861 
z"/>
<path fill="none" opacity="1.000000" stroke="none" 
	d="
M255.448273,91.800339 
	C255.622955,94.892303 255.814514,97.593773 256.029694,100.628273 
	C253.721786,100.060188 252.025131,99.642563 249.945435,99.130653 
	C251.032730,95.021690 252.143616,90.823540 253.254517,86.625389 
	C253.684265,86.612091 254.114014,86.598793 254.543777,86.585495 
	C254.850891,88.193611 255.158020,89.801727 255.448273,91.800339 
z"/>
<path fill="none" opacity="1.000000" stroke="none" 
	d="
M232.642334,95.948517 
	C232.221939,98.877197 231.797318,101.385010 231.372696,103.892815 
	C230.847839,103.829475 230.322983,103.766129 229.798126,103.702782 
	C229.798126,98.395950 229.798126,93.089111 229.798126,87.782272 
	C230.313766,87.723900 230.829407,87.665520 231.345062,87.607140 
	C231.776077,90.247307 232.207092,92.887466 232.642334,95.948517 
z"/>
<path fill="none" opacity="1.000000" stroke="none" 
	d="
M307.288452,197.963196 
	C308.251221,201.901215 308.975525,206.124359 309.699799,210.347504 
	C308.931702,210.448288 308.163635,210.549072 307.395538,210.649857 
	C305.139618,206.772064 306.171875,202.500961 307.288452,197.963196 
z"/>
<path fill="none" opacity="1.000000" stroke="none" 
	d="
M306.034424,222.545074 
	C306.317078,219.068832 306.668121,216.020966 307.019165,212.973083 
	C307.895081,213.083542 308.771027,213.193985 309.646942,213.304443 
	C309.133514,216.639023 308.620117,219.973618 308.106720,223.308197 
	C307.438751,223.196625 306.770752,223.085052 306.034424,222.545074 
z"/>
<path fill="none" opacity="1.000000" stroke="none" 
	d="
M316.854797,211.109894 
	C316.556641,213.588364 316.279266,215.657822 316.001892,217.727295 
	C315.387878,217.665268 314.773834,217.603226 314.159790,217.541199 
	C314.451294,213.971008 314.742798,210.400803 315.034302,206.830612 
	C315.584442,206.825684 316.134552,206.820755 316.684692,206.815826 
	C316.748322,208.110855 316.811920,209.405869 316.854797,211.109894 
z"/>
<path fill="none" opacity="1.000000" stroke="none" 
	d="
M72.134079,363.180664 
	C72.258720,360.843628 72.381546,358.974976 72.549240,356.423523 
	C75.814659,360.225891 75.643829,369.910004 72.132256,376.072144 
	C72.132256,371.931122 72.132256,367.790131 72.134079,363.180664 
z"/>
<path fill="none" opacity="1.000000" stroke="none" 
	d="
M512.130127,337.804108 
	C515.447937,341.652100 515.648865,346.674591 512.016724,352.250427 
	C512.016724,346.787933 512.016724,342.490295 512.130127,337.804108 
z"/>
<path fill="none" opacity="1.000000" stroke="none" 
	d="
M326.844208,352.109436 
	C324.689850,346.143707 324.015869,340.504181 326.781281,334.176117 
	C330.047974,326.701050 331.848053,318.588806 334.366974,310.779572 
	C334.799194,309.439606 335.646301,308.233490 335.944763,307.656097 
	C338.494171,308.609589 340.735291,309.018585 342.412445,310.216919 
	C343.655243,311.104919 344.627197,312.931702 344.921600,314.491028 
	C346.231903,321.429993 343.301666,326.977356 338.672607,331.861877 
	C336.960724,333.668213 335.468170,335.719635 333.587708,337.321289 
	C329.553772,340.757141 327.951874,344.962280 328.553894,350.715485 
	C327.825470,351.556702 327.334839,351.833069 326.844208,352.109436 
z"/>
<path fill="none" opacity="1.000000" stroke="none" 
	d="
M309.218323,364.836975 
	C309.447052,363.826965 309.624329,363.223694 309.856781,362.432800 
	C313.550018,367.987091 313.273102,380.300751 309.166870,384.757233 
	C309.166870,377.988892 309.166870,371.616302 309.218323,364.836975 
z"/>
<path fill="none" opacity="1.000000" stroke="none" 
	d="
M347.606934,390.857300 
	C346.862701,391.470428 345.807159,392.066193 345.686981,391.915558 
	C343.503235,389.178802 344.217712,381.336395 347.731018,377.002411 
	C347.731018,382.193085 347.731018,386.342804 347.606934,390.857300 
z"/>
<path fill="none" opacity="1.000000" stroke="none" 
	d="
M296.924744,355.059204 
	C296.924164,359.231445 296.924164,362.923462 296.924164,366.615509 
	C296.457214,366.619720 295.990265,366.623932 295.523315,366.628143 
	C295.523315,360.145203 295.523315,353.662262 295.523315,347.179291 
	C295.990662,347.147400 296.457977,347.115540 296.925323,347.083649 
	C296.925323,349.582092 296.925323,352.080566 296.924744,355.059204 
z"/>
<path fill="none" opacity="1.000000" stroke="none" 
	d="
M368.603760,328.261597 
	C367.284210,330.852966 365.679657,330.831696 364.827179,328.460815 
	C364.161957,326.610840 364.345459,324.455627 364.155945,322.479218 
	C369.999146,321.705322 367.680603,325.834930 368.603760,328.261597 
z"/>
<path fill="none" opacity="1.000000" stroke="none" 
	d="
M294.049255,380.943512 
	C294.514832,378.487396 294.958435,376.434021 295.402039,374.380646 
	C295.732758,374.405792 296.063477,374.430908 296.394196,374.456055 
	C296.394196,378.075806 296.394196,381.695557 296.394196,385.315277 
	C295.969147,385.399872 295.544067,385.484436 295.119019,385.569000 
	C294.755096,384.161438 294.391205,382.753845 294.049255,380.943512 
z"/>
<path fill="none" opacity="1.000000" stroke="none" 
	d="
M326.922028,352.458984 
	C327.334839,351.833069 327.825470,351.556702 328.572083,351.161804 
	C330.194061,350.421448 331.560028,349.799622 332.925995,349.177826 
	C333.141846,349.666626 333.357666,350.155457 333.573486,350.644287 
	C331.840424,352.474579 330.647003,355.611145 326.922028,352.458984 
z"/>
</svg>